<svg width="445" height="165" viewBox="0 0 445 165" fill="none" xmlns="http://www.w3.org/2000/svg">
<path fill-rule="evenodd" clip-rule="evenodd" d="M166.604 1.34721C156.051 2.24534 150.213 2.69441 142.354 2.69441C134.72 2.69441 127.984 2.24534 117.431 1.34721V2.69441C128.658 4.26615 134.495 7.85867 135.394 20.4325C136.252 33.0207 136.837 42.9661 137.148 57.2358H146.891C147.204 42.9569 147.787 32.9579 148.641 20.4325C149.539 7.85867 155.377 4.26615 166.604 2.69441V1.34721ZM146.651 111.236H137.37C137.338 117.092 137.283 123.007 137.19 128.882C131.721 123.032 126.234 117.15 120.731 111.236H100.34C116.482 129.143 132.069 146.995 147.069 164.807H147.518C146.912 148.441 146.715 128.904 146.651 111.236ZM50.1931 57.2358C43.4215 50.1437 36.5693 43.0406 29.6384 35.9253C29.5186 42.9947 29.4627 50.064 29.4366 57.2358H19.5217C19.4868 38.0292 19.3553 15.9893 18.8608 0H19.3099C36.5753 19.4115 53.7984 38.4839 70.9239 57.2358H50.1931ZM19.1778 111.236H29.7003C29.968 123.37 30.4438 132.558 31.2101 143.926C32.1083 156.949 37.7216 160.541 48.9483 162.113V163.46C38.3952 162.562 32.1083 162.113 24.2496 162.113C16.6155 162.113 10.5531 162.562 0 163.46V162.113C11.2267 160.541 16.84 156.949 17.7381 143.926C18.3775 132.545 18.8712 123.349 19.1778 111.236ZM256.007 111.236H274.263C275.107 114.552 275.567 118.101 275.567 121.922C275.567 147.967 254.012 164.807 226.17 164.807C208.881 164.807 196.981 158.296 187.55 151.335C188.448 142.354 188.448 135.169 187.55 124.616H188.897C193.837 148.866 211.126 156.724 227.742 156.724C244.582 156.724 260.524 148.866 260.524 128.209C260.524 121.771 258.842 116.209 256.007 111.236ZM219.793 57.2358H197.562C194.123 51.4362 192.041 44.8395 192.041 37.048C192.041 12.5739 213.147 0 235.825 0C248.848 0 258.952 4.0416 266.586 8.53228C265.688 15.9419 265.463 26.0459 266.586 35.2517H265.239C261.197 13.0229 246.827 8.0832 234.029 8.0832C214.943 8.0832 206.86 19.3099 206.86 31.8837C206.86 42.2256 212.15 50.1646 219.793 57.2358ZM310.561 111.236C320.999 144.119 350.201 164.807 392.542 164.807C413.199 164.807 432.734 159.643 444.858 154.254C443.736 144.599 443.511 134.271 444.858 123.493H443.511C438.796 149.539 416.792 156.724 394.338 156.724C358.931 156.724 337.634 137.397 328.637 111.236H310.561ZM326.331 57.2358H309.637C319.459 22.1164 350.432 0 393.44 0C412.526 0 428.243 4.26615 441.266 10.104C440.143 20.208 440.143 29.8629 441.266 39.7424H439.919C433.632 15.2683 415.669 8.0832 393.216 8.0832C356.965 8.0832 333.882 28.129 326.331 57.2358Z" fill="#835A4E"/>
<path d="M64.2559 77.6933C64.9678 77.6933 65.4966 77.6527 66.4525 77.5713V77.6933C65.4356 77.8357 64.9067 78.1611 64.8254 79.3001C64.7034 81.09 64.6423 82.3103 64.6423 85.3815C64.6423 87.3544 64.6423 90.1815 64.7237 92.3781H64.683C61.4288 88.5137 57.8695 84.6289 54.0457 80.7035C54.0254 81.9035 54.0254 83.1035 54.0254 84.3645C54.0254 87.4764 54.0661 88.6764 54.1881 90.4866C54.2695 91.6662 54.7779 91.9916 55.7949 92.134V92.2561C54.8389 92.1747 54.2695 92.134 53.5576 92.134C52.8661 92.134 52.3169 92.1747 51.361 92.2561V92.134C52.3779 91.9916 52.8864 91.6662 52.9678 90.4866C53.0695 88.6764 53.1305 87.4764 53.1305 84.3849C53.1305 82.412 53.1305 79.4222 53.0695 77.4493H53.1101C56.7101 81.4967 60.2898 85.3815 63.7881 89.1239C63.8084 87.8425 63.8084 86.5408 63.8084 85.3408C63.8084 82.29 63.7474 81.09 63.6254 79.3001C63.544 78.1611 63.0152 77.8357 61.9983 77.6933V77.5713C62.9542 77.6527 63.5644 77.6933 64.2559 77.6933ZM92.6668 77.6933C93.4193 77.6933 94.0091 77.6527 94.66 77.5713V77.6933C93.6634 77.8764 93.2566 78.1815 92.4837 79.3408C91.3447 81.0696 89.9413 83.3069 88.66 85.4222C88.66 87.3544 88.66 88.7984 88.7617 90.5883C88.8227 91.7476 89.4125 92.0933 90.4701 92.2154V92.3374C89.4125 92.2561 88.721 92.2357 87.9684 92.2357C87.1956 92.2357 86.504 92.2561 85.4464 92.3374V92.2154C86.504 92.0933 87.0939 91.7476 87.1549 90.5883C87.2566 88.8391 87.2769 87.4154 87.2769 85.6866C85.9142 83.4086 84.4905 81.1306 83.3312 79.3408C82.5583 78.1611 82.1312 77.8357 81.1956 77.6933V77.5713C81.8464 77.6323 82.7617 77.6933 83.4939 77.6933C84.2261 77.6933 85.0803 77.6527 86.1786 77.5713V77.6933C84.8566 77.8561 84.3074 78.2222 84.999 79.3408C85.9956 80.9476 87.0329 82.6357 88.2125 84.6493C89.3718 82.8188 90.5718 80.8662 91.4871 79.3408C92.199 78.2018 91.5888 77.8154 90.3074 77.6933V77.5713C91.304 77.6527 91.9549 77.6933 92.6668 77.6933ZM115.956 92.3781C111.603 92.3781 108.39 89.0832 108.39 84.873C108.39 80.5001 111.705 77.4493 115.874 77.4493C120.227 77.4493 123.44 80.7442 123.44 84.9544C123.44 89.3272 120.125 92.3781 115.956 92.3781ZM116.118 91.6662C119.434 91.6662 121.895 88.9001 121.895 85.3001C121.895 81.5984 119.413 78.1611 115.712 78.1611C112.376 78.1611 109.915 80.9272 109.915 84.5272C109.915 88.2289 112.417 91.6662 116.118 91.6662ZM150.306 77.0425H150.428C150.143 78.0391 149.96 79.0154 149.859 79.7679H149.737C149.838 78.873 149.716 78.5069 148.76 78.4255C147.926 78.3442 146.157 78.2628 144.774 78.2425C144.693 80.1137 144.672 82.4527 144.672 84.995C144.672 87.09 144.672 88.7171 144.774 90.5883C144.835 91.7476 145.445 92.0933 146.482 92.2154V92.3374C145.445 92.2561 144.733 92.2154 143.981 92.2154C143.228 92.2154 142.537 92.2561 141.479 92.3374V92.2154C142.516 92.0933 143.126 91.7476 143.188 90.5883C143.289 88.7578 143.289 87.0493 143.289 84.995C143.289 82.4933 143.269 80.134 143.188 78.2425C141.825 78.2832 140.137 78.3645 139.303 78.4255C138.326 78.5272 138.103 78.934 137.777 79.7883H137.655C137.92 79.0357 138.123 77.9781 138.265 77.0018H138.388C138.367 77.4289 138.469 77.49 138.713 77.5103C139.364 77.5713 142.516 77.612 143.94 77.612C145.364 77.612 148.903 77.5713 149.635 77.49C150.021 77.4493 150.204 77.3883 150.306 77.0425ZM175.927 90.5069C176.436 91.6459 176.903 91.9916 177.839 92.134V92.2561C177.147 92.195 176.151 92.134 175.419 92.134C174.686 92.134 173.71 92.1747 172.714 92.2561V92.134C173.995 92.0323 174.646 91.6662 174.198 90.4866C173.914 89.7544 173.425 88.5747 172.836 87.2323C172.042 87.1917 171.107 87.1713 170.09 87.1713C169.093 87.1713 167.975 87.1917 167.141 87.2323C166.714 88.3306 166.307 89.4289 165.92 90.4866C165.493 91.6662 165.9 92.0323 167.263 92.134V92.2561C166.49 92.195 165.636 92.134 165.025 92.134C164.232 92.134 163.52 92.195 162.951 92.2561V92.134C163.581 92.0527 164.253 91.6662 164.761 90.4662C166.083 87.3747 169.134 79.9916 170.069 77.4493H170.11C172.266 82.351 173.405 84.934 175.927 90.5069ZM170.069 86.4798C170.944 86.4798 171.717 86.4391 172.49 86.3781C171.554 84.2628 170.497 81.9035 169.805 80.3984C169.053 82.3103 168.239 84.3442 167.466 86.3781C168.198 86.4391 169.276 86.4798 170.069 86.4798ZM214.392 92.3781C212.826 92.3781 211.748 91.7883 210.894 91.1578C210.975 90.3442 210.975 89.6933 210.894 88.7374H211.016C211.463 90.934 213.029 91.6459 214.534 91.6459C216.06 91.6459 217.504 90.934 217.504 89.0628C217.504 85.3408 211.3 84.8527 211.3 80.8052C211.3 78.5883 213.212 77.4493 215.266 77.4493C216.446 77.4493 217.361 77.8154 218.053 78.2222C217.972 78.8933 217.951 79.8086 218.053 80.6425H217.931C217.565 78.6289 216.263 78.1815 215.104 78.1815C213.375 78.1815 212.643 79.1984 212.643 80.3374C212.643 83.7137 218.866 84.2628 218.866 88.4933C218.866 90.8527 216.914 92.3781 214.392 92.3781ZM245.286 79.3001L240.039 84.4255C245.49 90.3035 246.018 91.9306 249.13 92.1137V92.2357C243.618 92.2357 244.737 91.3611 238.493 84.8933L244.107 79.3408C244.961 78.4866 244.717 77.8357 243.476 77.6933V77.5713C243.883 77.612 244.798 77.6933 245.51 77.6933C246.242 77.6933 246.812 77.6527 247.564 77.5713V77.6933C246.852 77.795 246.14 78.4662 245.286 79.3001ZM238.168 90.4459C238.229 91.6052 238.839 91.9916 239.876 92.1137V92.2357C238.818 92.1544 238.107 92.1137 237.374 92.1137C236.622 92.1137 235.91 92.1544 234.873 92.2357V92.1137C235.91 91.9916 236.52 91.6052 236.581 90.4459C236.683 88.6154 236.683 86.9679 236.683 84.9137C236.683 82.8594 236.683 81.212 236.581 79.3815C236.52 78.2222 235.91 77.8357 234.873 77.7137V77.5917C235.91 77.673 236.622 77.7137 237.374 77.7137C238.107 77.7137 238.818 77.673 239.876 77.5917V77.7137C238.839 77.8357 238.229 78.2222 238.168 79.3815C238.066 81.2527 238.066 82.8391 238.066 84.9137C238.066 86.9883 238.066 88.5747 238.168 90.4459ZM268.41 77.5917V77.7137C267.373 77.8357 266.763 78.2222 266.702 79.3815C266.6 81.2527 266.6 82.8391 266.6 84.9137C266.6 86.9883 266.6 88.5747 266.702 90.4459C266.763 91.6052 267.373 91.9916 268.41 92.1137V92.2357C267.353 92.1544 266.641 92.1137 265.908 92.1137C265.156 92.1137 264.444 92.1544 263.407 92.2357V92.1137C264.444 91.9916 265.054 91.6052 265.115 90.4459C265.217 88.6154 265.217 86.9679 265.217 84.9137C265.217 82.8594 265.217 81.212 265.115 79.3815C265.054 78.2222 264.444 77.8357 263.407 77.7137V77.5917C264.444 77.673 265.156 77.7137 265.908 77.7137C266.641 77.7137 267.353 77.673 268.41 77.5917ZM296.633 77.6933C297.345 77.6933 297.873 77.6527 298.829 77.5713V77.6933C297.812 77.8357 297.284 78.1611 297.202 79.3001C297.08 81.09 297.019 82.3103 297.019 85.3815C297.019 87.3544 297.019 90.1815 297.101 92.3781H297.06C293.806 88.5137 290.246 84.6289 286.423 80.7035C286.402 81.9035 286.402 83.1035 286.402 84.3645C286.402 87.4764 286.443 88.6764 286.565 90.4866C286.646 91.6662 287.155 91.9916 288.172 92.134V92.2561C287.216 92.1747 286.646 92.134 285.934 92.134C285.243 92.134 284.694 92.1747 283.738 92.2561V92.134C284.755 91.9916 285.263 91.6662 285.345 90.4866C285.446 88.6764 285.507 87.4764 285.507 84.3849C285.507 82.412 285.507 79.4222 285.446 77.4493H285.487C289.087 81.4967 292.667 85.3815 296.165 89.1239C296.185 87.8425 296.185 86.5408 296.185 85.3408C296.185 82.29 296.124 81.09 296.002 79.3001C295.921 78.1611 295.392 77.8357 294.375 77.6933V77.5713C295.331 77.6527 295.941 77.6933 296.633 77.6933ZM321.81 92.3781C316.949 92.3781 314 89.3679 314 84.9137C314 80.4391 317.132 77.4493 321.892 77.4493C323.62 77.4493 325.044 77.8357 326.224 78.3645C326.122 79.2798 326.122 80.1544 326.224 81.0493H326.102C325.532 78.8323 323.905 78.1815 321.871 78.1815C317.803 78.1815 315.566 80.9679 315.566 84.6493C315.566 88.3306 317.559 91.6459 321.973 91.6459C324.007 91.6459 326 90.995 326.427 88.6357H326.549C326.427 89.612 326.447 90.5476 326.549 91.4222C325.451 91.9103 323.681 92.3781 321.81 92.3781ZM354.036 90.5069C354.545 91.6459 355.012 91.9916 355.948 92.134V92.2561C355.257 92.195 354.26 92.134 353.528 92.134C352.795 92.134 351.819 92.1747 350.823 92.2561V92.134C352.104 92.0323 352.755 91.6662 352.307 90.4866C352.023 89.7544 351.534 88.5747 350.945 87.2323C350.151 87.1917 349.216 87.1713 348.199 87.1713C347.202 87.1713 346.084 87.1917 345.25 87.2323C344.823 88.3306 344.416 89.4289 344.029 90.4866C343.602 91.6662 344.009 92.0323 345.372 92.134V92.2561C344.599 92.195 343.745 92.134 343.134 92.134C342.341 92.134 341.629 92.195 341.06 92.2561V92.134C341.69 92.0527 342.362 91.6662 342.87 90.4662C344.192 87.3747 347.243 79.9916 348.179 77.4493H348.219C350.375 82.351 351.514 84.934 354.036 90.5069ZM348.179 86.4798C349.053 86.4798 349.826 86.4391 350.599 86.3781C349.663 84.2628 348.606 81.9035 347.914 80.3984C347.162 82.3103 346.348 84.3442 345.575 86.3781C346.307 86.4391 347.385 86.4798 348.179 86.4798ZM377.449 85.4222C380.358 90.0594 381.497 92.0933 383.734 92.1137V92.2357C378.731 92.2357 379.402 90.7713 376.046 85.8696C375.761 85.9103 375.476 85.9306 375.151 85.9306C374.622 85.9306 374.073 85.89 373.646 85.8493C373.646 87.5171 373.666 88.9205 373.748 90.5069C373.809 91.6459 374.419 92.012 375.456 92.134V92.2561C374.398 92.1747 373.686 92.134 372.954 92.134C372.202 92.134 371.49 92.1747 370.453 92.2561V92.134C371.49 92.012 372.1 91.6459 372.161 90.5069C372.263 88.6764 372.263 86.9679 372.263 84.9137C372.263 83.0628 372.263 81.0086 372.161 79.2391C372.1 78.1001 371.49 77.7747 370.453 77.673V77.551C371.449 77.6323 372.019 77.673 372.914 77.673C373.748 77.673 374.561 77.612 375.232 77.612C378.242 77.612 379.768 79.3611 379.768 81.5374C379.768 83.1645 378.954 84.6696 377.449 85.4222ZM375.009 85.3815C377.734 85.3815 378.324 83.2459 378.324 81.8425C378.324 80.1544 377.47 78.3239 375.09 78.3239C374.642 78.3239 374.215 78.3645 373.768 78.4255C373.646 81.4154 373.646 82.8391 373.646 84.9137V85.2594C374.053 85.3408 374.48 85.3815 375.009 85.3815ZM406.581 89.49L406.703 89.5103C406.601 90.4052 406.601 91.2391 406.703 92.2357C404.832 92.1137 403.896 92.134 402.534 92.134C401.211 92.134 398.893 92.1544 397.815 92.2561V92.134C398.811 92.012 399.462 91.6662 399.523 90.4866C399.625 88.6561 399.625 87.0696 399.625 84.9137C399.625 82.9611 399.625 81.151 399.523 79.3205C399.462 78.1611 398.852 77.795 397.815 77.6933V77.5713C398.913 77.673 400.601 77.6933 402.534 77.6933C403.754 77.6933 405.442 77.673 406.642 77.5713C406.581 78.3645 406.581 79.2391 406.642 80.0933H406.52C406.235 78.5679 405.503 78.3239 403.489 78.3239C402.757 78.3239 401.883 78.3645 401.11 78.4459C401.028 81.1103 401.008 82.473 401.008 84.1205C401.74 84.1611 402.452 84.1815 403.469 84.1611C404.771 84.1611 405.076 83.6323 405.3 82.7984L405.422 82.8188C405.361 83.3476 405.3 83.9171 405.3 84.4255C405.3 84.9747 405.32 85.5645 405.422 86.0933L405.3 86.1137C405.015 85.1781 404.791 84.7916 403.469 84.7713C402.534 84.7713 401.781 84.751 401.008 84.7916V84.9137C401.008 87.0696 401.008 88.7578 401.089 90.0188C401.171 91.3408 402.025 91.4425 403.896 91.4425C405.523 91.4425 406.134 91.2391 406.581 89.49Z" fill="#835A4E"/>
</svg>
